# xmcd
#
# Track frame offsets: 
#        150
#        15078
#        26427
#        38903
#        50570
#        64288
#        76918
#        92165
#        106934
#        120516
#        130747
#        140026
#        149134
#        164301
#        174948
#        185276
#        193379
#        203444
#        216796
#        226332
#
# Disc length: 3178 seconds
#
# Revision: 2
# Processed by: cddbd v1.5.2PL0 Copyright (c) Steve Scherf et al.
# Submitted via: ExactAudioCopyFreeDBPlugin 1.0
#
DISCID=130c6814
DTITLE=The Delfonics - The Delfonics:  40 Classic Soul Sides
DYEAR=2016
DGENRE=Soul
TTITLE0=La-La Means I Love You
TTITLE1=Can't Get Over Losing You
TTITLE2=I'm Sorry
TTITLE3=You Are Gone
TTITLE4=Break Your Promise
TTITLE5=Alfie
TTITLE6=The Shadow Of Your Smile
TTITLE7=The Look Of Love
TTITLE8=Can You Remember
TTITLE9=A Lover's Concerto
TTITLE10=Hurt So Bad
TTITLE11=Ready Or Not Here I Come (Can't Hide From Love)
TTITLE12=Somebody Loves You
TTITLE13=Let It Be Me
TTITLE14=Hot Dog (I Love You So)
TTITLE15=Ain't That Peculiar
TTITLE16=With These Hands
TTITLE17=Face It Girl, It's Over
TTITLE18=Going Out Of My Head
TTITLE19=Everytime I See My Baby
EXTD=
EXTT0=
EXTT1=
EXTT2=
EXTT3=
EXTT4=
EXTT5=
EXTT6=
EXTT7=
EXTT8=
EXTT9=
EXTT10=
EXTT11=
EXTT12=
EXTT13=
EXTT14=
EXTT15=
EXTT16=
EXTT17=
EXTT18=
EXTT19=
PLAYORDER=
